<?xml version="1.0" encoding="UTF-8"?>
<svg id="Layer_1" data-name="Layer 1" xmlns="http://www.w3.org/2000/svg" viewBox="0 0 500 200">
  <defs>
    <style>
      .cls-1 {
        fill: #2664ff;
      }
    </style>
  </defs>
  <path class="cls-1" d="m100.75,25h-46.91c-10.35,0-25.3,3.98-34.39,19.23-4.49,7.53-4.46,17.42-4.46,17.42v7.42c0,.57.03,1.2.08,1.85.78,15.62,11.14,24.39,16.16,29.07h.02s-.02.02-.02.02c-5.01,4.68-15.38,13.45-16.16,29.07-.05.65-.08,1.28-.08,1.85v7.42s-.03,9.89,4.46,17.42c9.09,15.25,24.04,19.23,34.39,19.23h46.91c7.36,0,13.33-5.96,13.33-13.31s-5.97-13.31-13.33-13.31c0,0-32.7-.07-44.28,0-3.97.02-14.76-1.16-14.8-15.34.34-6.09,3.46-9.39,7.45-13.1l10.01-7.85c4.33-3.65,6.4-7.93,6.21-12.1.2-4.17-1.87-8.45-6.21-12.1l-10.01-7.84c-4-3.72-7.11-7.01-7.45-13.1.04-14.18,10.83-15.37,14.8-15.34,11.58.07,44.28,0,44.28,0,7.36,0,13.33-5.96,13.33-13.31s-5.97-13.31-13.33-13.31Z"/>
  <path class="cls-1" d="m98.24,86.68h-17.86c-7.36,0-13.33,5.96-13.33,13.31s5.97,13.31,13.33,13.31h17.86c7.36,0,13.33-5.96,13.33-13.31s-5.97-13.31-13.33-13.31Z"/>
  <path class="cls-1" d="m223.46,25.96l-47.78-.11c-10.35,0-25.3,3.98-34.39,19.23-4.49,7.53-4.46,17.42-4.46,17.42v67.3s-.9,17.56,4.46,25.97c9.44,14.83,23.76,19.14,34.09,19.22-.04,0-.08,0-.12,0h.42c-.08,0-.17,0-.25,0,7.29-.09,13.16-6.01,13.16-13.3,0-7.35-5.5-13.31-13.33-13.31-5.28,0-11.76-2.55-11.76-15.42v-65.09c0-14.25,10.83-15.44,14.8-15.42,11.58.07,44.23,0,44.23,0,7.36,0,13.33-5.96,13.33-13.31s-5.89-13.31-12.4-13.19Z"/>
  <path class="cls-1" d="m222.52,148.38h-17.86c-7.36,0-13.33,5.96-13.33,13.31s5.97,13.31,13.33,13.31h17.86c7.36,0,13.33-5.96,13.33-13.31s-5.97-13.31-13.33-13.31Z"/>
  <path class="cls-1" d="m271.87,25.02c-7.36,0-13.34,5.53-13.34,12.36v125.25c0,6.83,5.97,12.36,13.34,12.36s13.33-5.53,13.33-12.36V37.39c0-6.83-5.97-12.36-13.33-12.36Z"/>
  <path class="cls-1" d="m318.9,88.33h-17.86c-7.36,0-13.33,5.96-13.33,13.31s5.97,13.31,13.33,13.31h17.86c7.36,0,13.33-5.96,13.33-13.31s-5.97-13.31-13.33-13.31Z"/>
  <path class="cls-1" d="m347.94,25.02c-7.36,0-13.34,5.53-13.34,12.36v125.25c0,6.83,5.97,12.36,13.34,12.36s13.33-5.53,13.33-12.36V37.39c0-6.83-5.97-12.36-13.33-12.36Z"/>
  <path class="cls-1" d="m471.67,78.65c-7.36,0-13.33,5.96-13.33,13.31v17.82c0,7.35,5.97,13.31,13.33,13.31s13.33-5.96,13.33-13.31v-17.82c0-7.35-5.97-13.31-13.33-13.31Z"/>
  <path class="cls-1" d="m483.47,132.6c-1.92-4.2-5.78-7.34-12.44-7.34-7.36,0-12.7,4.5-12.7,11.85,0,9.49-6.77,11.03-11.57,11.25-2.95,0-6.37,0-9.83,0h-.73c-3.77,0-7.56.01-10.8.03-3.97.02-14.81-1.16-14.81-15.42v-64.97c0-14.25,10.83-15.44,14.81-15.42,3.24.02,7.02.03,10.8.03h.73c3.46,0,6.88,0,9.83,0,4.8.22,11.56,1.76,11.56,11.26v.48c0,7.59,5.34,12.24,12.7,12.24,7.9,0,11.88-4.57,13.32-10.12.42-1.2.64-2.56.62-4.06.01.22.03.44.03.66v-1.87c0,.35-.02.7-.03,1.04,0-.11,0-.21,0-.32-.21-4.31-.96-9.9-4.43-16.71-8.07-15.81-24.04-19.23-34.39-19.23h-23.37c-10.35,0-25.3,3.98-34.39,19.23-4.48,7.53-4.46,17.42-4.46,17.42v75.74s-.03,9.89,4.46,17.42c9.09,15.25,24.04,19.23,34.39,19.23h23.37c10.35,0,26.32-3.42,34.39-19.23,3.29-6.45,4.12-11.8,4.38-16.01.01-.11.01-.21.02-.32,0-.11.02-.23.02-.33.02.35.03.71.03,1.06v-1.81c0,.21-.02.41-.03.61.11-2.53-.46-4.65-1.5-6.36Z"/>
</svg>